<svg xmlns="http://www.w3.org/2000/svg" width="416" height="352" viewBox="0 0 416 352">
  <path id="_ionicons_svg_ios-options" d="M299.3,376a40.06,40.06,0,0,1,73.4,0H448a16,16,0,0,1,0,32H372.7a40.06,40.06,0,0,1-73.4,0H64a16,16,0,0,1,0-32Zm-160-136a40.06,40.06,0,0,1,73.4,0H448a16,16,0,0,1,0,32H212.7a40.06,40.06,0,0,1-73.4,0H64a16,16,0,0,1,0-32Zm160-136a40.06,40.06,0,0,1,73.4,0H448a16,16,0,0,1,0,32H372.7a40.06,40.06,0,0,1-73.4,0H64a16,16,0,0,1,0-32Z" transform="translate(-48 -80)" fill="#f5f5f5"/>
</svg>
