<svg xmlns="http://www.w3.org/2000/svg" width="416" height="416" viewBox="0 0 416 416">
  <path id="_ionicons_svg_md-globe" d="M256,48C141.124,48,48,141.125,48,256s93.124,208,208,208,208-93.125,208-208S370.875,48,256,48ZM234.451,433A178.307,178.307,0,0,1,120.315,140.341c.71,8.517,2.463,17.648,2.014,24.175-1.64,23.795-3.988,38.687,9.94,58.762,5.426,7.819,6.759,19.028,9.4,28.078,2.583,8.854,12.9,13.5,20.019,18.953,14.359,11.009,28.1,23.8,43.322,33.494,10.049,6.395,16.326,9.576,13.383,21.839-2.367,9.862-3.028,15.937-8.13,24.723-1.557,2.681,5.877,19.918,8.351,22.392,7.5,7.5,14.938,14.375,23.111,21.125,12.671,10.469-1.231,24.072-7.274,39.117Zm147.616-50.932a177.014,177.014,0,0,1-92.556,49.081c4.94-12.216,13.736-23.07,21.895-29.362,7.1-5.476,15.986-16.009,19.693-24.352s8.611-15.555,13.577-23.217c7.065-10.9-17.419-27.336-25.353-30.781-17.854-7.751-31.294-18.21-47.161-29.375-11.3-7.954-34.257,4.154-47.02-1.417-17.481-7.633-31.883-20.9-47.078-32.339-15.68-11.809-14.922-25.576-14.922-43,12.282.453,29.754-3.4,37.908,6.478,2.573,3.117,11.42,17.042,17.342,12.094,4.838-4.043-3.585-20.249-5.212-24.059-5.005-11.715,11.4-16.284,19.8-24.228,10.96-10.364,34.47-26.618,32.612-34.047s-23.524-28.477-36.249-25.193c-1.907.492-18.7,18.1-21.941,20.859q.129-8.619.26-17.237c.055-3.628-6.768-7.352-6.451-9.692.8-5.914,17.262-16.647,21.357-21.357-2.869-1.793-12.659-10.2-15.622-8.968-7.174,2.99-15.276,5.05-22.45,8.039a45.664,45.664,0,0,0-.662-7.133,176.585,176.585,0,0,1,45.31-13.152l14.084,5.66,9.944,11.8,9.924,10.233,8.675,2.795,13.779-13L282,87.929V79.59a176.34,176.34,0,0,1,75.522,29.8c-4.032.361-8.463.954-13.462,1.59-2.065-1.22-4.714-1.774-6.965-2.623,6.531,14.042,13.343,27.89,20.264,41.746,7.393,14.8,23.793,30.677,26.673,46.3,3.394,18.416,1.039,35.144,2.9,56.811,1.788,20.865,23.524,44.572,23.524,44.572s10.037,3.419,18.384,2.228a177.19,177.19,0,0,1-46.769,82.052Z" transform="translate(-48 -48)" fill="#fff"/>
</svg>
