<svg xmlns="http://www.w3.org/2000/svg" width="448" height="416" viewBox="0 0 448 416">
  <path id="starOutline" d="M463,192H315.9L271.2,58.6a16.2,16.2,0,0,0-30.4,0L196.1,192H48a16.047,16.047,0,0,0-16,16,11.758,11.758,0,0,0,.3,2.7c.2,3.5,1.8,7.4,6.7,11.3l120.9,85.2L113.5,442.1a16.046,16.046,0,0,0,5.5,18c2.9,2.1,5.6,3.9,9,3.9,3.3,0,7.2-1.7,10-3.6l118-84.1,118,84.1a18.738,18.738,0,0,0,10,3.6c3.4,0,6.1-1.7,8.9-3.9a15.85,15.85,0,0,0,5.5-18L352,307.2l119.9-86,2.9-2.5c2.6-2.8,5.2-6.6,5.2-10.7,0-8.8-8.2-16-17-16ZM335.8,284.5a28.085,28.085,0,0,0-10.2,31.8L355.7,404a4.013,4.013,0,0,1-6.1,4.6l-77.4-55.2a27.941,27.941,0,0,0-16.3-5.2,27.421,27.421,0,0,0-16.2,5.2l-77.4,55.1a4,4,0,0,1-6.1-4.6l30.1-87.7a28.18,28.18,0,0,0-10.3-32L95,227.1a4.021,4.021,0,0,1,2.3-7.3H196a27.962,27.962,0,0,0,26.5-19.1l29.6-88.2a4.024,4.024,0,0,1,7.6,0l29.6,88.2a27.962,27.962,0,0,0,26.5,19.1h97.3a3.956,3.956,0,0,1,2.3,7.2l-79.6,57.5Z" transform="translate(-32 -48)" fill="#ffab00"/>
</svg>
